<svg width="113" height="67" viewBox="0 0 113 67" fill="none" xmlns="http://www.w3.org/2000/svg">
<rect width="113" height="67" fill="white"/>
<rect x="42.8802" y="5.77527" width="42.141" height="56.5213" fill="white" stroke="#838181"/>
<rect x="40.4835" y="2.57959" width="42.9399" height="56.5213" fill="white" stroke="#838181"/>
<rect x="38.0868" y="0.981812" width="42.141" height="55.7224" fill="white" stroke="#838181"/>
<mask id="path-5-inside-1" fill="white">
<path fill-rule="evenodd" clip-rule="evenodd" d="M40.5479 38.222L40.4112 31.5158L34.9522 36.1723L35.1588 36.1122C34.9753 36.2604 34.8228 36.4486 34.7194 36.6692L25.9704 55.3471C25.5968 56.1447 25.6199 56.993 25.9591 57.696C26.0256 57.8338 26.1042 57.966 26.1943 58.0911C26.3065 58.2468 26.4365 58.3916 26.5832 58.5226C26.7245 58.6488 26.8813 58.7623 27.0526 58.8604C27.1936 58.9412 27.3444 59.0116 27.5044 59.0702C27.6644 59.1288 27.8273 59.1733 27.9916 59.2043C28.2206 59.2476 28.4522 59.2647 28.6824 59.2574C28.8611 59.2517 29.0388 59.2313 29.2138 59.197C29.4233 59.1559 29.6287 59.0949 29.8267 59.0152C30.573 58.715 31.213 58.1507 31.5661 57.3967L40.3151 38.7189C40.4122 38.5115 40.4557 38.2974 40.4513 38.0901L40.5479 38.222ZM29.0855 58.2446C28.8694 58.2892 28.6465 58.3018 28.4251 58.2789L38.1945 37.4225L38.6582 37.5923L29.0855 58.2446ZM37.2555 37.0785L27.4861 57.935C27.3421 57.8343 27.2167 57.716 27.1115 57.5843L36.7956 36.9101L37.2555 37.0785Z"/>
</mask>
<path fill-rule="evenodd" clip-rule="evenodd" d="M40.5479 38.222L40.4112 31.5158L34.9522 36.1723L35.1588 36.1122C34.9753 36.2604 34.8228 36.4486 34.7194 36.6692L25.9704 55.3471C25.5968 56.1447 25.6199 56.993 25.9591 57.696C26.0256 57.8338 26.1042 57.966 26.1943 58.0911C26.3065 58.2468 26.4365 58.3916 26.5832 58.5226C26.7245 58.6488 26.8813 58.7623 27.0526 58.8604C27.1936 58.9412 27.3444 59.0116 27.5044 59.0702C27.6644 59.1288 27.8273 59.1733 27.9916 59.2043C28.2206 59.2476 28.4522 59.2647 28.6824 59.2574C28.8611 59.2517 29.0388 59.2313 29.2138 59.197C29.4233 59.1559 29.6287 59.0949 29.8267 59.0152C30.573 58.715 31.213 58.1507 31.5661 57.3967L40.3151 38.7189C40.4122 38.5115 40.4557 38.2974 40.4513 38.0901L40.5479 38.222ZM29.0855 58.2446C28.8694 58.2892 28.6465 58.3018 28.4251 58.2789L38.1945 37.4225L38.6582 37.5923L29.0855 58.2446ZM37.2555 37.0785L27.4861 57.935C27.3421 57.8343 27.2167 57.716 27.1115 57.5843L36.7956 36.9101L37.2555 37.0785Z" fill="white"/>
<path d="M40.4112 31.5158L41.4414 31.438L41.4 29.4049L39.745 30.8166L40.4112 31.5158ZM40.5479 38.222L39.6878 38.8039L41.646 41.4768L41.5781 38.1442L40.5479 38.222ZM34.9522 36.1723L34.286 35.4732L35.2012 37.0962L34.9522 36.1723ZM35.1588 36.1122L35.8021 36.8304L34.9098 35.1883L35.1588 36.1122ZM34.7194 36.6692L33.7804 36.3253L34.7194 36.6692ZM25.9704 55.3471L25.0314 55.0031L25.0314 55.0031L25.9704 55.3471ZM25.9591 57.696L26.902 57.2519L26.902 57.2519L25.9591 57.696ZM26.1943 58.0911L27.0586 57.5149L27.0586 57.5149L26.1943 58.0911ZM26.5832 58.5226L27.3165 57.8012L27.3165 57.8012L26.5832 58.5226ZM27.0526 58.8604L26.4779 59.696L26.4779 59.696L27.0526 58.8604ZM27.9916 59.2043L27.7298 60.1546L27.7298 60.1546L27.9916 59.2043ZM28.6824 59.2574L28.654 60.2255L28.654 60.2255L28.6824 59.2574ZM29.2138 59.197L29.3642 60.1449L29.3642 60.1449L29.2138 59.197ZM29.8267 59.0152L30.1819 59.9023L30.1819 59.9023L29.8267 59.0152ZM31.5661 57.3967L32.5051 57.7407L32.5051 57.7407L31.5661 57.3967ZM40.3151 38.7189L41.2541 39.0628L41.2541 39.0628L40.3151 38.7189ZM40.4513 38.0901L41.3114 37.5082L39.3496 34.8305L39.4211 38.1689L40.4513 38.0901ZM28.4251 58.2789L27.4861 57.935L26.9374 59.1064L28.251 59.2419L28.4251 58.2789ZM29.0855 58.2446L29.2466 59.1903L29.7983 59.0765L30.0261 58.5849L29.0855 58.2446ZM38.1945 37.4225L38.6187 36.5169L37.6797 36.1729L37.2555 37.0785L38.1945 37.4225ZM38.6582 37.5923L39.5989 37.9326L40.0176 37.0293L39.0824 36.6867L38.6582 37.5923ZM27.4861 57.935L26.8391 58.7247L27.8764 59.4503L28.4251 58.2789L27.4861 57.935ZM37.2555 37.0785L38.1945 37.4225L38.6187 36.5169L37.6797 36.1729L37.2555 37.0785ZM27.1115 57.5843L26.1725 57.2404L25.9278 57.7627L26.2741 58.196L27.1115 57.5843ZM36.7956 36.9101L37.2198 36.0045L36.2808 35.6605L35.8566 36.5661L36.7956 36.9101ZM39.3811 31.5936L39.5177 38.2998L41.5781 38.1442L41.4414 31.438L39.3811 31.5936ZM35.6184 36.8715L41.0775 32.215L39.745 30.8166L34.286 35.4732L35.6184 36.8715ZM34.9098 35.1883L34.7032 35.2485L35.2012 37.0962L35.4078 37.036L34.9098 35.1883ZM34.5156 35.3939C34.2077 35.6426 33.9524 35.9581 33.7804 36.3253L35.6584 37.0132C35.6931 36.939 35.7429 36.8782 35.8021 36.8304L34.5156 35.3939ZM33.7804 36.3253L25.0314 55.0031L26.9094 55.691L35.6584 37.0132L33.7804 36.3253ZM25.0314 55.0031C24.5324 56.0686 24.564 57.203 25.0161 58.1401L26.902 57.2519C26.6758 56.783 26.6612 56.2209 26.9094 55.691L25.0314 55.0031ZM25.0161 58.1401C25.1048 58.3238 25.2097 58.5002 25.3301 58.6673L27.0586 57.5149C26.9987 57.4317 26.9463 57.3437 26.902 57.2519L25.0161 58.1401ZM25.33 58.6673C25.4798 58.8752 25.6536 59.0688 25.8499 59.2441L27.3165 57.8012C27.2194 57.7144 27.1331 57.6184 27.0586 57.5149L25.33 58.6673ZM25.8499 59.2441C26.0391 59.413 26.2489 59.5648 26.4779 59.696L27.6273 58.0248C27.5138 57.9597 27.41 57.8847 27.3165 57.8012L25.8499 59.2441ZM26.4779 59.696C26.6665 59.804 26.8676 59.8979 27.0802 59.9758L27.9286 58.1646C27.8212 58.1253 27.7207 58.0783 27.6273 58.0248L26.4779 59.696ZM27.0802 59.9758C27.2928 60.0536 27.5101 60.113 27.7298 60.1546L28.2534 58.2541C28.1445 58.2335 28.0359 58.2039 27.9286 58.1646L27.0802 59.9758ZM27.7298 60.1546C28.036 60.2124 28.346 60.2353 28.654 60.2255L28.7108 58.2893C28.5584 58.2941 28.4051 58.2828 28.2534 58.2541L27.7298 60.1546ZM28.654 60.2255C28.893 60.2179 29.1306 60.1907 29.3642 60.1449L29.0633 58.2492C28.947 58.272 28.8291 58.2855 28.7108 58.2893L28.654 60.2255ZM29.3642 60.1449C29.644 60.09 29.918 60.0085 30.1819 59.9023L29.4714 58.1281C29.3394 58.1812 29.2026 58.2219 29.0633 58.2492L29.3642 60.1449ZM30.1819 59.9023C31.1771 59.502 32.0335 58.7475 32.5051 57.7407L30.6272 57.0528C30.3924 57.5539 29.9688 57.928 29.4714 58.1281L30.1819 59.9023ZM32.5051 57.7407L41.2541 39.0628L39.3761 38.3749L30.6272 57.0528L32.5051 57.7407ZM41.2541 39.0628C41.4156 38.718 41.4889 38.3592 41.4814 38.0113L39.4211 38.1689C39.4226 38.2356 39.4088 38.3051 39.3761 38.3749L41.2541 39.0628ZM41.408 37.6401L41.3114 37.5082L39.5912 38.672L39.6878 38.8039L41.408 37.6401ZM28.251 59.2419C28.5853 59.2764 28.9215 59.2573 29.2466 59.1903L28.9243 57.2989C28.8173 57.321 28.7076 57.3271 28.5991 57.3159L28.251 59.2419ZM37.2555 37.0785L27.4861 57.935L29.3641 58.6229L39.1335 37.7664L37.2555 37.0785ZM39.0824 36.6867L38.6187 36.5169L37.7703 38.328L38.234 38.4979L39.0824 36.6867ZM30.0261 58.5849L39.5989 37.9326L37.7175 37.252L28.1448 57.9043L30.0261 58.5849ZM28.4251 58.2789L38.1945 37.4225L36.3165 36.7346L26.5471 57.591L28.4251 58.2789ZM26.2741 58.196C26.4326 58.3942 26.6218 58.5727 26.8391 58.7247L28.1331 57.1452C28.0625 57.0958 28.0008 57.0377 27.9488 56.9727L26.2741 58.196ZM35.8566 36.5661L26.1725 57.2404L28.0505 57.9283L37.7346 37.254L35.8566 36.5661ZM37.6797 36.1729L37.2198 36.0045L36.3714 37.8156L36.8313 37.9841L37.6797 36.1729Z" fill="#838181" mask="url(#path-5-inside-1)"/>
<line x1="42.4004" y1="3.99719" x2="75.9758" y2="3.99719" stroke="#838181"/>
<path d="M44.9243 28.0541H56.7068V34.2442H44.9243V28.0541Z" fill="white" stroke="#838181"/>
<path d="M44.9243 38.4399H56.7068V44.6301H44.9243V38.4399Z" fill="white" stroke="#838181"/>
<path d="M61.7014 28.0541H73.4839V34.2442H61.7014V28.0541Z" fill="white" stroke="#838181"/>
<path d="M61.7014 38.4399H73.4839V44.6301H61.7014V38.4399Z" fill="white" stroke="#838181"/>
<path d="M44.478 7.37305H73.8365V20.7534H44.478V7.37305Z" fill="white" stroke="#838181"/>
</svg>
