<svg width="43" height="19" viewBox="0 0 43 19" fill="none" xmlns="http://www.w3.org/2000/svg">
<path d="M3.97883 5.16V8H2.91883V5.16L0.288828 0.819999H1.22383C1.31716 0.819999 1.39216 0.843333 1.44883 0.89C1.50549 0.933333 1.55216 0.991666 1.58883 1.065L3.14883 3.75C3.21216 3.87333 3.26883 3.99 3.31883 4.1C3.37216 4.21 3.41883 4.31833 3.45883 4.425C3.49549 4.31833 3.53716 4.21 3.58383 4.1C3.63383 3.99 3.6905 3.87333 3.75383 3.75L5.30883 1.065C5.34216 1.005 5.38716 0.95 5.44383 0.9C5.50383 0.846666 5.57883 0.819999 5.66883 0.819999H6.60883L3.97883 5.16ZM13.782 4.41C13.782 4.94667 13.6954 5.44 13.522 5.89C13.352 6.33667 13.1104 6.72333 12.797 7.05C12.4837 7.37333 12.1087 7.625 11.672 7.805C11.2354 7.985 10.7504 8.075 10.217 8.075C9.68703 8.075 9.20203 7.985 8.76203 7.805C8.32536 7.625 7.95036 7.37333 7.63703 7.05C7.32703 6.72333 7.08536 6.33667 6.91203 5.89C6.7387 5.44 6.65203 4.94667 6.65203 4.41C6.65203 3.87667 6.7387 3.385 6.91203 2.935C7.08536 2.485 7.32703 2.09833 7.63703 1.775C7.95036 1.44833 8.32536 1.195 8.76203 1.015C9.20203 0.831666 9.68703 0.74 10.217 0.74C10.7504 0.74 11.2354 0.831666 11.672 1.015C12.1087 1.195 12.4837 1.44833 12.797 1.775C13.1104 2.09833 13.352 2.485 13.522 2.935C13.6954 3.385 13.782 3.87667 13.782 4.41ZM12.692 4.41C12.692 3.98333 12.6337 3.6 12.517 3.26C12.4004 2.92 12.2337 2.63167 12.017 2.395C11.8037 2.15833 11.5437 1.97667 11.237 1.85C10.9337 1.72333 10.5937 1.66 10.217 1.66C9.84036 1.66 9.4987 1.72333 9.19203 1.85C8.8887 1.97667 8.6287 2.15833 8.41203 2.395C8.19536 2.63167 8.0287 2.92 7.91203 3.26C7.79536 3.6 7.73703 3.98333 7.73703 4.41C7.73703 4.84 7.79536 5.225 7.91203 5.565C8.0287 5.90167 8.19536 6.18833 8.41203 6.425C8.6287 6.66167 8.8887 6.84333 9.19203 6.97C9.4987 7.09333 9.84036 7.155 10.217 7.155C10.5937 7.155 10.9337 7.09333 11.237 6.97C11.5437 6.84333 11.8037 6.66167 12.017 6.425C12.2337 6.18833 12.4004 5.90167 12.517 5.565C12.6337 5.225 12.692 4.84 12.692 4.41ZM17.9194 7.145C18.206 7.145 18.4627 7.09667 18.6894 7C18.916 6.90333 19.1077 6.76833 19.2644 6.595C19.421 6.41833 19.541 6.21 19.6244 5.97C19.7077 5.72667 19.7494 5.45833 19.7494 5.165V0.819999H20.8094V5.165C20.8094 5.585 20.7427 5.97333 20.6094 6.33C20.476 6.68667 20.2844 6.995 20.0344 7.255C19.7844 7.515 19.481 7.71833 19.1244 7.865C18.7677 8.01167 18.366 8.085 17.9194 8.085C17.4727 8.085 17.071 8.01167 16.7144 7.865C16.3577 7.71833 16.0544 7.515 15.8044 7.255C15.5544 6.995 15.3627 6.68667 15.2294 6.33C15.096 5.97333 15.0294 5.585 15.0294 5.165V0.819999H16.0944V5.16C16.0944 5.45333 16.1344 5.72167 16.2144 5.965C16.2977 6.20833 16.4177 6.41833 16.5744 6.595C16.731 6.76833 16.9227 6.90333 17.1494 7C17.376 7.09667 17.6327 7.145 17.9194 7.145ZM28.5047 5.325L27.4397 2.54C27.363 2.35 27.2864 2.11 27.2097 1.82C27.173 1.96333 27.1347 2.09667 27.0947 2.22C27.058 2.34333 27.0214 2.45333 26.9847 2.55L25.9247 5.325H28.5047ZM30.6097 8H29.7897C29.6964 8 29.6197 7.97667 29.5597 7.93C29.4997 7.88333 29.4564 7.82333 29.4297 7.75L28.7947 6.085H25.6297L24.9947 7.75C24.9714 7.81333 24.928 7.87167 24.8647 7.925C24.8014 7.975 24.7247 8 24.6347 8H23.8147L26.6747 0.819999H27.7497L30.6097 8ZM33.5411 4.28C33.8144 4.28 34.0544 4.24667 34.2611 4.18C34.4711 4.11333 34.6461 4.02 34.7861 3.9C34.9261 3.77667 35.0311 3.63167 35.1011 3.465C35.1711 3.295 35.2061 3.10833 35.2061 2.905C35.2061 2.49167 35.0694 2.18 34.7961 1.97C34.5261 1.76 34.1194 1.655 33.5761 1.655H32.5711V4.28H33.5411ZM36.8911 8H35.9411C35.7511 8 35.6128 7.925 35.5261 7.775L33.7511 5.285C33.6944 5.20167 33.6328 5.14333 33.5661 5.11C33.4994 5.07333 33.3994 5.055 33.2661 5.055H32.5711V8H31.5061V0.819999H33.5761C34.0394 0.819999 34.4378 0.868333 34.7711 0.965C35.1078 1.05833 35.3844 1.19333 35.6011 1.37C35.8211 1.54333 35.9828 1.75333 36.0861 2C36.1928 2.24667 36.2461 2.52333 36.2461 2.83C36.2461 3.08 36.2078 3.315 36.1311 3.535C36.0544 3.755 35.9411 3.95333 35.7911 4.13C35.6444 4.30333 35.4644 4.45333 35.2511 4.58C35.0378 4.70667 34.7961 4.80333 34.5261 4.87C34.6594 4.95 34.7744 5.06167 34.8711 5.205L36.8911 8ZM42.2697 7.135L42.2647 8H37.8147V0.819999H42.2647V1.685H38.8847V3.96H41.6047V4.795H38.8847V7.135H42.2697ZM15.5111 11.82V19H14.4461V15.765H10.7011V19H9.63109V11.82H10.7011V14.99H14.4461V11.82H15.5111ZM21.7423 18.135L21.7373 19H17.2873V11.82H21.7373V12.685H18.3573V14.96H21.0773V15.795H18.3573V18.135H21.7423ZM25.0938 15.28C25.3672 15.28 25.6072 15.2467 25.8138 15.18C26.0238 15.1133 26.1988 15.02 26.3388 14.9C26.4788 14.7767 26.5838 14.6317 26.6538 14.465C26.7238 14.295 26.7588 14.1083 26.7588 13.905C26.7588 13.4917 26.6222 13.18 26.3488 12.97C26.0788 12.76 25.6722 12.655 25.1288 12.655H24.1238V15.28H25.0938ZM28.4438 19H27.4938C27.3038 19 27.1655 18.925 27.0788 18.775L25.3038 16.285C25.2472 16.2017 25.1855 16.1433 25.1188 16.11C25.0522 16.0733 24.9522 16.055 24.8188 16.055H24.1238V19H23.0588V11.82H25.1288C25.5922 11.82 25.9905 11.8683 26.3238 11.965C26.6605 12.0583 26.9372 12.1933 27.1538 12.37C27.3738 12.5433 27.5355 12.7533 27.6388 13C27.7455 13.2467 27.7988 13.5233 27.7988 13.83C27.7988 14.08 27.7605 14.315 27.6838 14.535C27.6072 14.755 27.4938 14.9533 27.3438 15.13C27.1972 15.3033 27.0172 15.4533 26.8038 15.58C26.5905 15.7067 26.3488 15.8033 26.0788 15.87C26.2122 15.95 26.3272 16.0617 26.4238 16.205L28.4438 19ZM33.8224 18.135L33.8174 19H29.3674V11.82H33.8174V12.685H30.4374V14.96H33.1574V15.795H30.4374V18.135H33.8224Z" fill="black"/>
</svg>
