<svg width="111" height="76" viewBox="0 0 111 76" fill="none" xmlns="http://www.w3.org/2000/svg">
<path d="M108.896 52.504C108.896 67.672 100.352 75.256 83.264 75.256C66.176 75.256 57.632 66.616 57.632 49.336C57.632 31.864 69.728 15.544 93.92 0.375999L110.912 6.71199L93.056 30.04L93.632 31.48C103.808 33.592 108.896 40.6 108.896 52.504ZM51.296 52.504C51.296 67.672 42.752 75.256 25.664 75.256C8.576 75.256 0.0320001 66.616 0.0320001 49.336C0.0320001 31.864 12.128 15.544 36.32 0.375999L53.312 6.71199L35.456 30.04L36.032 31.48C46.208 33.592 51.296 40.6 51.296 52.504Z" fill="#0020C4" fill-opacity="0.2"/>
</svg>
