<svg width="53" height="65" viewBox="0 0 53 65" fill="none" xmlns="http://www.w3.org/2000/svg">
<path d="M27.0607 6.93934C26.4749 6.35355 25.5251 6.35355 24.9393 6.93934L15.3934 16.4853C14.8076 17.0711 14.8076 18.0208 15.3934 18.6066C15.9792 19.1924 16.9289 19.1924 17.5147 18.6066L26 10.1213L34.4853 18.6066C35.0711 19.1924 36.0208 19.1924 36.6066 18.6066C37.1924 18.0208 37.1924 17.0711 36.6066 16.4853L27.0607 6.93934ZM27.5 36L27.5 22L24.5 22L24.5 36L27.5 36ZM27.5 22L27.5 8L24.5 8L24.5 22L27.5 22Z" fill="black"/>
</svg>
