<svg width="125" height="92" viewBox="0 0 125 92" fill="none" xmlns="http://www.w3.org/2000/svg">
<rect width="125" height="92" fill="white"/>
<g clip-path="url(#clip0)">
<mask id="path-2-inside-1" fill="white">
<path d="M82 40.4988V54.1779H74.0697V41.4149C74.0697 38.2088 72.9227 36.0207 70.0522 36.0207C67.8609 36.0207 66.5569 37.4953 65.9832 38.9217C65.774 39.4317 65.7201 40.1415 65.7201 40.8553V54.1779H57.7872C57.7872 54.1779 57.894 32.5616 57.7872 30.322H65.7194V33.7035C65.7033 33.7288 65.6824 33.756 65.6672 33.7806H65.7194V33.7035C66.7732 32.0803 68.6553 29.7616 72.868 29.7616C78.0873 29.7615 82 33.1712 82 40.4988ZM49.4889 18.8223C46.7751 18.8223 45 20.6023 45 22.9432C45 25.2331 46.7237 27.0671 49.3837 27.0671H49.4366C52.2031 27.0671 53.9235 25.2334 53.9235 22.9432C53.8714 20.6023 52.2031 18.8223 49.4889 18.8223ZM45.4711 54.1779H53.4011V30.322H45.4711V54.1779Z"/>
</mask>
<path d="M82 54.1779V55.1779H83V54.1779H82ZM74.0697 54.1779H73.0697V55.1779H74.0697V54.1779ZM65.9832 38.9217L66.9084 39.3013L66.911 39.2949L65.9832 38.9217ZM65.7201 54.1779V55.1779H66.7201V54.1779H65.7201ZM57.7872 54.1779L56.7872 54.173L56.7822 55.1779H57.7872V54.1779ZM57.7872 30.322V29.322H56.7383L56.7883 30.3697L57.7872 30.322ZM65.7194 30.322H66.7194V29.322H65.7194V30.322ZM65.7194 33.7035L66.5631 34.2402L66.7194 33.9946V33.7035H65.7194ZM65.6672 33.7806L64.8164 33.2551L63.8744 34.7806H65.6672V33.7806ZM65.7194 33.7806V34.7806H66.7194V33.7806H65.7194ZM65.7194 33.7035L64.8806 33.1589L64.7194 33.4073V33.7035H65.7194ZM72.868 29.7616V30.7616H72.8681L72.868 29.7616ZM53.9235 22.9432H54.9235V22.9321L54.9233 22.9209L53.9235 22.9432ZM45.4711 54.1779H44.4711V55.1779H45.4711V54.1779ZM53.4011 54.1779V55.1779H54.4011V54.1779H53.4011ZM53.4011 30.322H54.4011V29.322H53.4011V30.322ZM45.4711 30.322V29.322H44.4711V30.322H45.4711ZM81 40.4988V54.1779H83V40.4988H81ZM82 53.1779H74.0697V55.1779H82V53.1779ZM75.0697 54.1779V41.4149H73.0697V54.1779H75.0697ZM75.0697 41.4149C75.0697 39.721 74.7716 38.1385 73.9639 36.9526C73.1127 35.7029 71.7822 35.0207 70.0522 35.0207V37.0207C71.1926 37.0207 71.8709 37.4326 72.3109 38.0784C72.7943 38.7881 73.0697 39.9028 73.0697 41.4149H75.0697ZM70.0522 35.0207C67.3187 35.0207 65.7244 36.8853 65.0554 38.5486L66.911 39.2949C67.3894 38.1053 68.4031 37.0207 70.0522 37.0207V35.0207ZM65.058 38.5422C64.768 39.2491 64.7201 40.1331 64.7201 40.8553H66.7201C66.7201 40.1498 66.78 39.6142 66.9084 39.3013L65.058 38.5422ZM64.7201 40.8553V54.1779H66.7201V40.8553H64.7201ZM65.7201 53.1779H57.7872V55.1779H65.7201V53.1779ZM57.7872 54.1779C58.7872 54.1829 58.7872 54.1828 58.7872 54.1826C58.7872 54.1824 58.7872 54.1822 58.7872 54.1819C58.7872 54.1812 58.7872 54.1802 58.7872 54.1789C58.7872 54.1763 58.7872 54.1724 58.7872 54.1671C58.7873 54.1567 58.7874 54.1412 58.7875 54.1207C58.7877 54.0797 58.7879 54.0188 58.7883 53.9394C58.7891 53.7804 58.7902 53.5471 58.7915 53.2493C58.7942 52.6537 58.798 51.8004 58.8022 50.7694C58.8105 48.7076 58.8205 45.9349 58.8272 43.0922C58.8405 37.4301 58.841 31.4269 58.786 30.2744L56.7883 30.3697C56.8402 31.4567 56.8406 37.3815 56.8272 43.0875C56.8206 45.9287 56.8105 48.7001 56.8022 50.7613C56.798 51.7919 56.7943 52.6449 56.7916 53.2402C56.7902 53.5378 56.7891 53.771 56.7883 53.9299C56.788 54.0093 56.7877 54.0701 56.7875 54.111C56.7874 54.1315 56.7873 54.147 56.7873 54.1573C56.7872 54.1625 56.7872 54.1665 56.7872 54.1691C56.7872 54.1704 56.7872 54.1714 56.7872 54.172C56.7872 54.1723 56.7872 54.1726 56.7872 54.1727C56.7872 54.1729 56.7872 54.173 57.7872 54.1779ZM57.7872 31.322H65.7194V29.322H57.7872V31.322ZM64.7194 30.322V33.7035H66.7194V30.322H64.7194ZM64.8756 33.1668C64.8801 33.1597 64.8829 33.1557 64.8821 33.1569C64.8808 33.1586 64.8795 33.1606 64.8737 33.1689C64.8692 33.1754 64.8608 33.1873 64.8519 33.2004C64.8429 33.2137 64.8302 33.2327 64.8164 33.2551L66.5181 34.306C66.5118 34.3161 66.5075 34.3225 66.5071 34.323C66.5069 34.3234 66.5076 34.3223 66.5122 34.3157C66.5155 34.311 66.5233 34.2998 66.531 34.2886C66.5391 34.2768 66.5506 34.26 66.5631 34.2402L64.8756 33.1668ZM65.6672 34.7806H65.7194V32.7806H65.6672V34.7806ZM66.7194 33.7806V33.7035H64.7194V33.7806H66.7194ZM66.5581 34.248C67.0566 33.4802 67.7062 32.62 68.6789 31.9457C69.6366 31.2817 70.9607 30.7616 72.868 30.7616V28.7616C70.5627 28.7616 68.8394 29.4008 67.5394 30.302C66.2544 31.1929 65.436 32.3036 64.8806 33.1589L66.5581 34.248ZM72.8681 30.7616C75.255 30.7615 77.25 31.5353 78.6561 33.0602C80.0695 34.593 81 37.0071 81 40.4988H83C83 36.6628 81.9742 33.7083 80.1264 31.7044C78.2713 29.6925 75.7004 28.7615 72.868 28.7616L72.8681 30.7616ZM49.4889 17.8223C47.91 17.8223 46.5323 18.3433 45.5411 19.277C44.5479 20.2127 44 21.5107 44 22.9432H46C46 22.0349 46.3397 21.2724 46.9125 20.7328C47.4873 20.1913 48.354 19.8223 49.4889 19.8223V17.8223ZM44 22.9432C44 25.8085 46.1949 28.0671 49.3837 28.0671V26.0671C47.2525 26.0671 46 24.6576 46 22.9432H44ZM49.3837 28.0671H49.4366V26.0671H49.3837V28.0671ZM49.4366 28.0671C51.0462 28.0671 52.4261 27.5298 53.4099 26.5855C54.3931 25.6418 54.9235 24.3453 54.9235 22.9432H52.9235C52.9235 23.8312 52.5937 24.5967 52.025 25.1425C51.4571 25.6876 50.5935 26.0671 49.4366 26.0671V28.0671ZM54.9233 22.9209C54.8919 21.5143 54.3704 20.2247 53.3996 19.286C52.4269 18.3455 51.0709 17.8223 49.4889 17.8223V19.8223C50.6211 19.8223 51.4564 20.1891 52.0094 20.7238C52.5643 21.2604 52.903 22.0312 52.9238 22.9655L54.9233 22.9209ZM45.4711 55.1779H53.4011V53.1779H45.4711V55.1779ZM54.4011 54.1779V30.322H52.4011V54.1779H54.4011ZM53.4011 29.322H45.4711V31.322H53.4011V29.322ZM44.4711 30.322V54.1779H46.4711V30.322H44.4711Z" fill="#838181" mask="url(#path-2-inside-1)"/>
<path d="M99.119 36.5C99.119 56.1719 83.1719 72.1191 63.5 72.1191C43.8281 72.1191 27.881 56.1719 27.881 36.5C27.881 16.8282 43.8281 0.880981 63.5 0.880981C83.1719 0.880981 99.119 16.8282 99.119 36.5Z" stroke="#838181"/>
</g>
<defs>
<clipPath id="clip0">
<rect width="37" height="37" fill="white" transform="translate(45 18)"/>
</clipPath>
</defs>
</svg>
