<svg width="113" height="67" viewBox="0 0 113 67" fill="none" xmlns="http://www.w3.org/2000/svg">
<rect width="113" height="67" fill="white"/>
<path d="M13.0483 4H100V54.9713H56.8325H54.6741H13.0483V4Z" fill="white"/>
<path d="M54.6741 54.9713V59.0117C53.1798 58.4956 11.3857 60.8259 13.0483 61.8089C14.7109 62.7918 100 61.8089 100 61.8089C80.3965 59.5297 71.5593 59.1829 56.8325 59.0117V54.9713H54.6741Z" fill="white"/>
<path d="M54.6741 54.9713H13.0483V4H100V54.9713H56.8325M54.6741 54.9713V59.0117C53.1798 58.4956 11.3857 60.8259 13.0483 61.8089C14.7109 62.7918 100 61.8089 100 61.8089C80.3965 59.5297 71.5593 59.1829 56.8325 59.0117V54.9713M54.6741 54.9713H56.8325" stroke="#838181"/>
<rect x="15.2119" y="6.21191" width="81.839" height="45.7119" fill="white" stroke="#838181"/>
<path d="M19.6356 15.0593H94.1017V47.5H19.6356V15.0593Z" fill="white"/>
<path d="M19.6356 15.0593H94.1017M19.6356 15.0593V47.5M19.6356 15.0593L94.1017 47.5M94.1017 15.0593V47.5M94.1017 15.0593L19.6356 47.5M94.1017 47.5H19.6356" stroke="#838181"/>
<path d="M59.4492 10.6356L94.1017 10.6356" stroke="#838181"/>
<path d="M19.6356 8.42371H26.2712V12.1101H19.6356V8.42371Z" fill="white" stroke="#838181"/>
</svg>
