<svg width="125" height="92" viewBox="0 0 125 92" fill="none" xmlns="http://www.w3.org/2000/svg">
<rect width="125" height="92" fill="white"/>
<path fill-rule="evenodd" clip-rule="evenodd" d="M78.1162 9H45V65.9451H78.1162V9ZM45 8H44V9V65.9451V66.9451H45H78.1162H79.1162V65.9451V9V8H78.1162H45ZM75.6079 14.0164H47.5083V57.166H75.6079V14.0164ZM47.5083 13.0164H46.5083V14.0164V57.166V58.166H47.5083H75.6079H76.6079V57.166V14.0164V13.0164H75.6079H47.5083ZM63.0664 61.9287C63.0664 62.7618 62.3911 63.4371 61.5581 63.4371C60.7251 63.4371 60.0498 62.7618 60.0498 61.9287C60.0498 61.0956 60.7251 60.4203 61.5581 60.4203C62.3911 60.4203 63.0664 61.0956 63.0664 61.9287ZM64.0664 61.9287C64.0664 63.314 62.9434 64.4371 61.5581 64.4371C60.1728 64.4371 59.0498 63.314 59.0498 61.9287C59.0498 60.5434 60.1728 59.4203 61.5581 59.4203C62.9434 59.4203 64.0664 60.5434 64.0664 61.9287Z" fill="#838181"/>
</svg>
