<svg width="113" height="67" viewBox="0 0 113 67" fill="none" xmlns="http://www.w3.org/2000/svg">
<rect width="113" height="67" fill="white"/>
<path fill-rule="evenodd" clip-rule="evenodd" d="M26.2243 24.1734C26.2243 18.1539 31.1041 13.2742 37.1235 13.2742C43.143 13.2742 48.0228 18.1539 48.0228 24.1734C48.0228 26.9255 47.0033 29.4384 45.3208 31.3568C43.3224 33.6353 40.3911 35.0726 37.1235 35.0726C33.856 35.0726 30.9247 33.6353 28.9263 31.3568C27.2438 29.4384 26.2243 26.9255 26.2243 24.1734ZM37.1235 12.2742C30.5518 12.2742 25.2243 17.6016 25.2243 24.1734C25.2243 27.0092 26.217 29.6143 27.8731 31.6586C23.6797 35.9546 17.6448 45.099 16 56.8166H17.0116C18.6408 45.468 24.4688 36.6012 28.5365 32.4107C30.7015 34.667 33.7486 36.0726 37.1235 36.0726C40.472 36.0726 43.4978 34.6889 45.6595 32.4636C48.5498 36.3319 52.2097 42.8447 54.1947 50.3701C54.7449 52.4559 55.1655 54.616 55.406 56.8166H56.4116C56.167 54.5218 55.7314 52.2754 55.1616 50.115C53.1123 42.3458 49.3156 35.6414 46.3384 31.7024C48.0159 29.6516 49.0228 27.0295 49.0228 24.1734C49.0228 17.6016 43.6953 12.2742 37.1235 12.2742Z" fill="black"/>
<path d="M45.3208 31.3568L45.6967 31.6865L45.3208 31.3568ZM28.9263 31.3568L28.5504 31.6865L28.9263 31.3568ZM27.8731 31.6586L28.2309 32.0079L28.5416 31.6896L28.2616 31.3439L27.8731 31.6586ZM16 56.8166L15.5049 56.7471L15.4249 57.3166H16V56.8166ZM17.0116 56.8166V57.3166H17.4449L17.5065 56.8876L17.0116 56.8166ZM28.5365 32.4107L28.8973 32.0645L28.5386 31.6907L28.1777 32.0625L28.5365 32.4107ZM45.6595 32.4636L46.06 32.1644L45.7092 31.6948L45.3009 32.1152L45.6595 32.4636ZM54.1947 50.3701L54.6781 50.2425L54.1947 50.3701ZM55.406 56.8166L54.909 56.8709L54.9577 57.3166H55.406V56.8166ZM56.4116 56.8166V57.3166H56.9678L56.9088 56.7636L56.4116 56.8166ZM55.1616 50.115L55.6451 49.9875L55.1616 50.115ZM46.3384 31.7024L45.9513 31.3858L45.7024 31.6902L45.9395 32.0039L46.3384 31.7024ZM37.1235 12.7742C30.8279 12.7742 25.7243 17.8778 25.7243 24.1734H26.7243C26.7243 18.43 31.3802 13.7742 37.1235 13.7742V12.7742ZM48.5228 24.1734C48.5228 17.8778 43.4192 12.7742 37.1235 12.7742V13.7742C42.8669 13.7742 47.5228 18.43 47.5228 24.1734H48.5228ZM45.6967 31.6865C47.4562 29.6804 48.5228 27.0514 48.5228 24.1734H47.5228C47.5228 26.7997 46.5505 29.1964 44.9449 31.0271L45.6967 31.6865ZM37.1235 35.5726C40.5411 35.5726 43.6074 34.0686 45.6967 31.6865L44.9449 31.0271C43.0374 33.2019 40.2411 34.5726 37.1235 34.5726V35.5726ZM28.5504 31.6865C30.6397 34.0686 33.706 35.5726 37.1235 35.5726V34.5726C34.0059 34.5726 31.2097 33.2019 29.3022 31.0271L28.5504 31.6865ZM25.7243 24.1734C25.7243 27.0514 26.7909 29.6804 28.5504 31.6865L29.3022 31.0271C27.6966 29.1964 26.7243 26.7997 26.7243 24.1734H25.7243ZM25.7243 24.1734C25.7243 17.8778 30.8279 12.7742 37.1235 12.7742V11.7742C30.2757 11.7742 24.7243 17.3255 24.7243 24.1734H25.7243ZM28.2616 31.3439C26.675 29.3854 25.7243 26.8905 25.7243 24.1734H24.7243C24.7243 27.1279 25.759 29.8433 27.4846 31.9734L28.2616 31.3439ZM16.4951 56.8861C18.1228 45.2906 24.0993 36.2405 28.2309 32.0079L27.5153 31.3094C23.2601 35.6687 17.1668 44.9074 15.5049 56.7471L16.4951 56.8861ZM16 57.3166H17.0116V56.3166H16V57.3166ZM28.1777 32.0625C24.0488 36.3161 18.1632 45.2763 16.5166 56.7455L17.5065 56.8876C19.1184 45.6596 24.8888 36.8863 28.8953 32.759L28.1777 32.0625ZM37.1235 35.5726C33.8904 35.5726 30.9719 34.2266 28.8973 32.0645L28.1757 32.7569C30.4311 35.1073 33.6069 36.5726 37.1235 36.5726V35.5726ZM45.3009 32.1152C43.2294 34.2477 40.3314 35.5726 37.1235 35.5726V36.5726C40.6126 36.5726 43.7662 35.1302 46.0181 32.812L45.3009 32.1152ZM54.6781 50.2425C52.6746 42.6467 48.9831 36.0765 46.06 32.1644L45.259 32.7629C48.1165 36.5873 51.7449 43.0428 53.7112 50.4976L54.6781 50.2425ZM55.9031 56.7622C55.6596 54.5344 55.2339 52.3497 54.6781 50.2425L53.7112 50.4976C54.2558 52.5621 54.6715 54.6976 54.909 56.8709L55.9031 56.7622ZM55.406 57.3166H56.4116V56.3166H55.406V57.3166ZM54.6781 50.2425C55.2423 52.3812 55.6728 54.6026 55.9145 56.8696L56.9088 56.7636C56.6612 54.441 56.2206 52.1696 55.6451 49.9875L54.6781 50.2425ZM45.9395 32.0039C48.883 35.8983 52.6477 42.5446 54.6781 50.2425L55.6451 49.9875C53.577 42.1471 49.7482 35.3846 46.7372 31.4009L45.9395 32.0039ZM48.5228 24.1734C48.5228 26.9099 47.5585 29.4211 45.9513 31.3858L46.7254 32.019C48.4733 29.8821 49.5228 27.1491 49.5228 24.1734H48.5228ZM37.1235 12.7742C43.4192 12.7742 48.5228 17.8778 48.5228 24.1734H49.5228C49.5228 17.3255 43.9714 11.7742 37.1235 11.7742V12.7742Z" fill="#838181"/>
<path fill-rule="evenodd" clip-rule="evenodd" d="M66.1697 24.4325C66.1697 18.4131 71.0495 13.5333 77.0689 13.5333C83.0884 13.5333 87.9681 18.4131 87.9681 24.4325C87.9681 27.1847 86.9487 29.6975 85.2661 31.6159C83.2677 33.8944 80.3365 35.3317 77.0689 35.3317C73.8014 35.3317 70.8701 33.8944 68.8717 31.6159C67.1891 29.6975 66.1697 27.1847 66.1697 24.4325ZM77.0689 12.5333C70.4972 12.5333 65.1697 17.8608 65.1697 24.4325C65.1697 27.2684 66.1623 29.8735 67.8185 31.9178C63.6251 36.2138 57.5902 45.3582 55.9454 57.0757H56.9569C58.5862 45.7271 64.4142 36.8604 68.4819 32.6699C70.6469 34.9261 73.694 36.3317 77.0689 36.3317C80.4174 36.3317 83.4432 34.9481 85.6049 32.7228C88.4951 36.5911 92.1551 43.1039 94.14 50.6292C94.6902 52.7151 95.1109 54.8751 95.3514 57.0757H96.357C96.1124 54.781 95.6768 52.5346 95.107 50.3742C93.0577 42.605 89.261 35.9006 86.2837 31.9616C87.9613 29.9107 88.9681 27.2887 88.9681 24.4325C88.9681 17.8608 83.6407 12.5333 77.0689 12.5333Z" fill="black"/>
<path d="M85.2661 31.6159L85.642 31.9456L85.2661 31.6159ZM68.8717 31.6159L68.4958 31.9456L68.8717 31.6159ZM67.8185 31.9178L68.1763 32.267L68.487 31.9487L68.207 31.6031L67.8185 31.9178ZM55.9454 57.0757L55.4502 57.0062L55.3703 57.5757H55.9454V57.0757ZM56.9569 57.0757V57.5757H57.3903L57.4519 57.1468L56.9569 57.0757ZM68.4819 32.6699L68.8426 32.3237L68.484 31.9499L68.1231 32.3216L68.4819 32.6699ZM85.6049 32.7228L86.0054 32.4235L85.6546 31.954L85.2462 32.3744L85.6049 32.7228ZM94.14 50.6292L94.6235 50.5017L94.14 50.6292ZM95.3514 57.0757L94.8544 57.13L94.9031 57.5757H95.3514V57.0757ZM96.357 57.0757V57.5757H96.9131L96.8542 57.0227L96.357 57.0757ZM95.107 50.3742L95.5904 50.2467L95.107 50.3742ZM86.2837 31.9616L85.8967 31.645L85.6477 31.9494L85.8848 32.2631L86.2837 31.9616ZM77.0689 13.0333C70.7733 13.0333 65.6697 18.1369 65.6697 24.4325H66.6697C66.6697 18.6892 71.3256 14.0333 77.0689 14.0333V13.0333ZM88.4681 24.4325C88.4681 18.1369 83.3645 13.0333 77.0689 13.0333V14.0333C82.8122 14.0333 87.4681 18.6892 87.4681 24.4325H88.4681ZM85.642 31.9456C87.4015 29.9395 88.4681 27.3106 88.4681 24.4325H87.4681C87.4681 27.0588 86.4959 29.4556 84.8902 31.2862L85.642 31.9456ZM77.0689 35.8317C80.4864 35.8317 83.5527 34.3278 85.642 31.9456L84.8902 31.2862C82.9828 33.4611 80.1865 34.8317 77.0689 34.8317V35.8317ZM68.4958 31.9456C70.5851 34.3278 73.6514 35.8317 77.0689 35.8317V34.8317C73.9513 34.8317 71.1551 33.4611 69.2476 31.2862L68.4958 31.9456ZM65.6697 24.4325C65.6697 27.3106 66.7363 29.9395 68.4958 31.9456L69.2476 31.2862C67.642 29.4556 66.6697 27.0588 66.6697 24.4325H65.6697ZM65.6697 24.4325C65.6697 18.1369 70.7733 13.0333 77.0689 13.0333V12.0333C70.221 12.0333 64.6697 17.5846 64.6697 24.4325H65.6697ZM68.207 31.6031C66.6203 29.6445 65.6697 27.1497 65.6697 24.4325H64.6697C64.6697 27.3871 65.7043 30.1025 67.43 32.2325L68.207 31.6031ZM56.4405 57.1452C58.0682 45.5497 64.0447 36.4997 68.1763 32.267L67.4607 31.5685C63.2054 35.9279 57.1122 45.1666 55.4502 57.0062L56.4405 57.1452ZM55.9454 57.5757H56.9569V56.5757H55.9454V57.5757ZM68.1231 32.3216C63.9941 36.5752 58.1086 45.5355 56.462 57.0047L57.4519 57.1468C59.0638 45.9188 64.8342 37.1455 68.8406 33.0181L68.1231 32.3216ZM77.0689 35.8317C73.8358 35.8317 70.9173 34.4858 68.8426 32.3237L68.1211 33.016C70.3764 35.3665 73.5523 36.8317 77.0689 36.8317V35.8317ZM85.2462 32.3744C83.1748 34.5068 80.2767 35.8317 77.0689 35.8317V36.8317C80.558 36.8317 83.7116 35.3894 85.9635 33.0712L85.2462 32.3744ZM94.6235 50.5017C92.62 42.9058 88.9285 36.3357 86.0054 32.4235L85.2043 33.0221C88.0618 36.8465 91.6902 43.3019 93.6566 50.7567L94.6235 50.5017ZM95.8485 57.0214C95.6049 54.7935 95.1793 52.6089 94.6235 50.5017L93.6566 50.7567C94.2011 52.8212 94.6168 54.9568 94.8544 57.13L95.8485 57.0214ZM95.3514 57.5757H96.357V56.5757H95.3514V57.5757ZM94.6235 50.5017C95.1876 52.6404 95.6182 54.8618 95.8598 57.1287L96.8542 57.0227C96.6066 54.7001 96.166 52.4288 95.5904 50.2467L94.6235 50.5017ZM85.8848 32.2631C88.8284 36.1574 92.593 42.8037 94.6235 50.5017L95.5904 50.2467C93.5224 42.4062 89.6936 35.6437 86.6826 31.6601L85.8848 32.2631ZM88.4681 24.4325C88.4681 27.1691 87.5039 29.6802 85.8967 31.645L86.6707 32.2781C88.4186 30.1413 89.4681 27.4082 89.4681 24.4325H88.4681ZM77.0689 13.0333C83.3645 13.0333 88.4681 18.1369 88.4681 24.4325H89.4681C89.4681 17.5846 83.9168 12.0333 77.0689 12.0333V13.0333Z" fill="#838181"/>
</svg>
