<svg width="111" height="76" viewBox="0 0 111 76" fill="none" xmlns="http://www.w3.org/2000/svg">
<path d="M2.04702 23.144C2.04702 7.97599 10.591 0.391991 27.679 0.391991C44.767 0.391991 53.311 9.12799 53.311 26.6C53.311 43.88 41.215 60.104 17.023 75.272L0.0310236 68.936L17.887 45.608L17.311 44.168C7.13502 42.056 2.04702 35.048 2.04702 23.144ZM59.647 23.144C59.647 7.97599 68.191 0.391991 85.279 0.391991C102.367 0.391991 110.911 9.12799 110.911 26.6C110.911 43.88 98.815 60.104 74.623 75.272L57.631 68.936L75.487 45.608L74.911 44.168C64.735 42.056 59.647 35.048 59.647 23.144Z" fill="#0020C4" fill-opacity="0.2"/>
</svg>
